<?xml version="1.0" encoding="UTF-8" standalone="no"?>
<!-- Created with Inkscape (http://www.inkscape.org/) -->

<svg
   width="163.04539mm"
   height="163.08772mm"
   viewBox="0 0 163.04539 163.08772"
   version="1.1"
   id="svg5"
   xmlns="http://www.w3.org/2000/svg"
   xmlns:svg="http://www.w3.org/2000/svg">
  <defs
     id="defs2" />
  <g
     id="layer1"
     transform="translate(-13.541413,-58.277486)">
    <path
       style="fill:#ffffff;stroke-width:0.352778"
       d="M 87.656884,221.16253 C 59.560334,218.23204 35.88226,202.39025 22.807639,177.77521 13.19187,159.672 10.921549,137.37945 16.646049,117.27382 22.089195,98.156355 35.334276,80.719033 52.230974,70.4258 73.138814,57.689037 97.484144,54.853706 120.6416,62.45849 c 28.24443,9.275314 49.27893,33.357325 54.65757,62.57644 2.61933,14.22937 1.19862,30.26715 -3.86203,43.59682 -10.54017,27.76263 -35.27379,47.63395 -64.73026,52.00516 -4.49121,0.66647 -14.936386,0.95467 -19.049996,0.52562 z m 17.115836,-15.36271 c 4.96762,-0.72046 10.99105,-2.39328 11.98713,-3.32904 2.15198,-2.02168 4.7637,-9.29834 4.7637,-13.27242 0,-4.14533 -2.88538,-8.00893 -6.99149,-9.36179 -1.77565,-0.58503 -33.330916,-0.85239 -36.814336,-0.31192 -5.57305,0.86469 -8.72928,4.08701 -9.04304,9.23242 -0.23997,3.93526 2.34959,11.50946 4.68515,13.70361 0.86321,0.81095 5.23047,2.13917 9.95858,3.02872 6.64194,1.24961 14.22228,1.35929 21.454306,0.31042 z M 52.215364,182.53771 c 2.15693,-4.32611 2.85372,-10.05511 1.76088,-14.47797 -0.28574,-1.15643 -2.07167,-5.19821 -3.96875,-8.98176 -3.201564,-6.38523 -3.639195,-7.06927 -6.095054,-9.52684 -3.858638,-3.86133 -9.260384,-6.34816 -13.789117,-6.34816 h -1.646437 l 0.153129,1.6757 c 1.456674,15.9405 7.730051,30.01806 18.244351,40.94063 l 1.800578,1.87049 1.15459,-1.34133 c 0.63503,-0.73772 1.70865,-2.45257 2.38583,-3.81076 z m 94.680386,-0.90625 c 4.87147,-6.02754 8.52555,-12.60873 11.06599,-19.93046 1.85446,-5.34471 2.8017,-9.87638 3.55315,-16.99871 l 0.15819,-1.49931 h -1.65621 c -2.33262,0 -5.42008,0.85452 -8.50721,2.35454 -1.96437,0.95447 -3.3273,1.9753 -5.29167,3.96345 -2.46818,2.49804 -2.88769,3.16343 -6.24787,9.90979 -2.09013,4.19642 -3.75597,8.01663 -3.96875,9.10139 -1.15646,5.89553 0.35742,12.57365 3.92002,17.29229 l 1.4331,1.89812 1.40651,-1.35771 c 0.77358,-0.74673 2.63422,-2.87676 4.13475,-4.73339 z M 98.945774,166.80901 c 4.712356,-1.08531 9.245656,-4.73338 11.418636,-9.18889 6.2708,-12.85777 -4.8809,-27.17315 -18.897796,-24.25903 -8.63437,1.79508 -14.67755,10.54698 -13.33035,19.30537 1.01,6.56625 6.55816,12.64278 12.90189,14.13059 1.90293,0.4463 5.99484,0.45249 7.90762,0.012 z m -6.71358,-7.92009 c -6.71949,-2.0714 -8.53056,-11.18708 -3.13942,-15.8017 1.52128,-1.30215 4.18952,-2.35368 5.97244,-2.35368 1.78293,0 4.45117,1.05153 5.972436,2.35368 5.45725,4.67121 3.56327,13.788 -3.287026,15.82232 -2.1285,0.6321 -3.41664,0.62729 -5.51843,-0.0206 z M 40.018979,130.49093 c 2.238418,-0.36519 7.56235,-1.29491 11.830965,-2.06604 21.00827,-3.79518 32.05239,-4.85072 47.27222,-4.51805 12.274956,0.2683 20.755276,1.21964 37.218046,4.17521 13.06694,2.34592 17.93369,3.10817 21.40073,3.35188 3.89029,0.27346 3.69866,0.63778 2.57216,-4.89 -5.57331,-27.348745 -27.96822,-48.544722 -55.65065,-52.67135 -4.925456,-0.734239 -14.239986,-0.740903 -19.090186,-0.01366 -25.00389,3.749119 -45.708875,21.069593 -53.630511,44.86387 -1.330659,3.99692 -2.84598,10.4653 -2.84598,12.14852 0,0.77697 0.04221,0.78356 3.426679,0.53513 1.884673,-0.13834 5.25811,-0.55033 7.496527,-0.91552 z"
       id="path469" />
  </g>
</svg>
