<?xml version="1.0" encoding="UTF-8" standalone="no"?>
<!-- Created with Inkscape (http://www.inkscape.org/) -->

<svg
   width="52.739815mm"
   height="48.292419mm"
   viewBox="0 0 52.739812 48.292419"
   version="1.1"
   id="svg5"
   xmlns="http://www.w3.org/2000/svg"
   xmlns:svg="http://www.w3.org/2000/svg">
  <defs
     id="defs2" />
  <g
     id="layer1"
     transform="translate(-69.558076,-102.82255)">
    <path
       style="fill:#ffffff;stroke-width:0.108766"
       d="m 110.7364,150.86208 -0.28129,-0.28129 v -4.73628 c 0,-3.99301 -0.024,-4.73627 -0.15267,-4.73627 -0.41825,0 -3.62161,0.59962 -4.98679,0.93344 -0.85231,0.20842 -4.21716,1.20625 -7.477423,2.2174 -3.26027,1.01115 -6.608658,2.03753 -7.440862,2.28083 -2.932146,0.85725 -6.915768,1.57886 -10.212387,1.84992 -2.192661,0.18029 -5.355574,0.14946 -6.065244,-0.0591 -2.0892,-0.61402 -3.773074,-2.2979 -4.387102,-4.3871 -0.155861,-0.53031 -0.173629,-2.40096 -0.173629,-18.28018 0,-19.63645 -0.05736,-18.09669 0.730239,-19.60379 0.497365,-0.95173 1.555146,-2.00951 2.506877,-2.50687 1.349452,-0.70521 1.533853,-0.73024 5.380101,-0.73024 h 3.465723 l 0.266971,0.26697 0.266972,0.26697 v 4.73356 4.73355 l 0.299107,-0.051 c 0.164509,-0.028 1.025324,-0.17404 1.912924,-0.32444 3.065397,-0.51941 3.49712,-0.63726 12.36264,-3.37484 3.559383,-1.09909 6.961043,-2.12058 7.559263,-2.26997 3.51377,-0.87748 6.28925,-1.25226 9.89975,-1.33679 2.38053,-0.0557 2.80262,-0.0402 3.37175,0.12424 2.133,0.61618 3.7376,2.19868 4.4719,4.41031 0.18762,0.56507 0.20056,1.4056 0.23367,15.17289 0.0365,15.19554 0.002,16.72206 -0.41458,18.21102 -0.82352,2.94504 -3.02442,5.52591 -5.8098,6.81283 -1.27005,0.58681 -2.25135,0.82049 -3.7218,0.88632 -1.31339,0.0588 -1.32506,0.0572 -1.60431,-0.22208 z m 3.41676,-2.378 c 2.95827,-0.95086 5.10864,-3.43113 5.7194,-6.59685 0.12718,-0.65921 0.15398,-2.93742 0.15398,-13.08881 v -12.29069 l -0.34083,0.28679 c -0.40751,0.3429 -1.00963,0.65887 -1.82927,0.95992 -0.51645,0.1897 -0.93662,0.22853 -2.91472,0.26932 l -2.31129,0.0477 v 15.3917 15.39171 l 0.40788,-0.0718 c 0.22433,-0.0395 0.72601,-0.17402 1.11485,-0.299 z M 80.934657,146.0563 c 4.285062,-0.44463 6.577992,-0.99461 14.94577,-3.58491 9.053793,-2.80265 10.073403,-3.06317 14.058043,-3.592 l 0.51664,-0.0686 v -11.05621 -11.05621 l -0.52038,0.51255 c -0.2862,0.2819 -0.61556,0.51255 -0.7319,0.51255 -0.1195,0 -0.60312,-0.38956 -1.11167,-0.89547 l -0.90015,-0.89547 -0.55399,0.55399 -0.554,0.554 0.40213,0.55974 c 1.12101,1.56037 1.21769,3.70055 0.24066,5.32775 -0.79748,1.32817 -2.4414,2.45115 -4.10187,2.80204 -1.16686,0.24658 -2.726093,0.15627 -3.853933,-0.22322 l -0.86285,-0.29032 -0.65987,0.30395 c -0.58882,0.27122 -0.78285,0.30407 -1.80192,0.30502 -1.05929,9.8e-4 -1.19505,-0.024 -1.87348,-0.34542 -0.840577,-0.3982 -1.578766,-1.10051 -1.950827,-1.85602 -0.370191,-0.75171 -0.364553,-2.14188 0.01179,-2.90666 0.530958,-1.07899 1.826177,-2.00857 3.032437,-2.1764 0.46785,-0.0651 0.53405,-0.11416 0.83446,-0.6185 0.76787,-1.28914 2.43435,-2.41979 4.07874,-2.76728 1.166953,-0.2466 2.726083,-0.15627 3.854123,0.22329 l 0.86306,0.29039 0.65793,-0.65792 0.65792,-0.65793 -0.89557,-0.90025 c -0.5069,-0.50954 -0.89558,-0.99219 -0.89558,-1.11209 0,-0.28066 1.0744,-1.36073 1.35359,-1.36073 0.12883,0 0.58933,0.36844 1.11857,0.89492 l 0.89959,0.89492 0.8996,-0.89492 c 0.50911,-0.50647 0.99154,-0.89492 1.11143,-0.89492 0.28066,0 1.36073,1.07441 1.36073,1.35359 0,0.12878 -0.36759,0.58848 -0.89235,1.11599 l -0.89235,0.897 0.94213,0.96278 c 0.85786,0.87666 0.95746,0.94742 1.11346,0.79114 0.14462,-0.14487 0.62534,-0.18011 3.08332,-0.22602 l 2.91199,-0.0544 0.8237,-0.40731 c 0.97552,-0.48238 1.50149,-1.02183 1.97586,-2.02651 0.29783,-0.63079 0.34014,-0.8354 0.34014,-1.64491 0,-0.80952 -0.0423,-1.01412 -0.34014,-1.64492 -0.46934,-0.99401 -1.00223,-1.5451 -1.94431,-2.0107 -0.98473,-0.48668 -1.81222,-0.55837 -4.40854,-0.38191 -2.36468,0.16071 -3.9934,0.37653 -6.24782,0.82787 -2.19022,0.43848 -2.73976,0.59557 -10.289783,2.94126 -6.096228,1.89402 -8.553938,2.57549 -10.956925,3.03812 -4.608943,0.88731 -10.31647,1.18038 -11.9183,0.61197 -0.719924,-0.25546 -1.514538,-0.68684 -1.886837,-1.02432 l -0.246653,-0.22359 0.02912,14.62264 0.02912,14.62263 0.341331,0.7204 c 0.187732,0.39622 0.517212,0.91508 0.732177,1.15302 0.424165,0.4695 1.420454,1.05128 2.093519,1.22249 0.560289,0.14253 3.933165,0.0523 5.978919,-0.16002 z m 2.383274,-2.81763 c -1.067358,-0.34128 -4.237078,-1.7444 -7.287337,-3.22583 -0.982747,-0.47729 -1.333896,-0.71789 -1.966126,-1.34714 -1.225872,-1.22009 -1.751551,-2.59139 -1.648748,-4.30097 0.160034,-2.66131 1.928066,-4.98755 4.250494,-5.59247 1.64545,-0.42858 7.101152,-0.50811 8.496793,-0.12385 1.385542,0.38147 2.060147,1.00657 2.233095,2.0692 0.136167,0.83664 0.45878,1.27879 1.615023,2.21343 1.262099,1.02022 2.147972,1.96341 2.441826,2.59983 0.191676,0.41512 0.239705,0.71678 0.238615,1.49864 -0.0012,0.87557 -0.03848,1.05756 -0.352988,1.7242 -0.955044,2.02434 -3.218875,3.90778 -5.392711,4.48657 -0.694746,0.18498 -2.04697,0.18415 -2.627936,-0.002 z m 2.253287,-2.23759 c 1.881853,-0.58125 3.941445,-2.68968 3.941445,-4.03491 0,-0.53931 -0.345927,-0.96279 -1.819201,-2.22709 -1.729221,-1.48394 -2.295309,-2.24039 -2.434045,-3.25258 -0.07681,-0.5604 -0.20528,-0.62996 -1.506421,-0.81563 -1.545229,-0.2205 -5.41947,-0.0524 -6.53714,0.28369 -1.208527,0.36339 -2.101987,1.42543 -2.497306,2.96851 -0.143609,0.56056 -0.156077,0.80984 -0.06355,1.27058 0.158194,0.78771 0.57477,1.56771 1.069498,2.00253 0.580577,0.51028 5.488355,2.85418 7.756579,3.70445 0.983403,0.36865 1.189714,0.37856 2.090138,0.10045 z m 12.192739,-3.10177 c -0.9548,-0.20755 -1.57257,-0.50751 -2.16341,-1.05045 -0.5866,-0.53904 -0.80778,-0.98097 -0.80778,-1.614 0,-0.63302 0.22118,-1.07495 0.80778,-1.61399 0.86118,-0.79136 2.16252,-1.21015 3.7604,-1.21015 1.600123,0 2.984113,0.44711 3.792053,1.22504 0.55671,0.53604 0.77613,0.98813 0.77613,1.5991 0,0.24313 -0.0678,0.59955 -0.15072,0.79205 -0.21138,0.49082 -1.00414,1.22179 -1.61926,1.49305 -1.17984,0.52029 -3.017273,0.67888 -4.395193,0.37935 z m 2.547203,-2.17091 c 0.4716,-0.062 1.22512,-0.36777 1.22512,-0.49716 0,-0.1498 -0.8677,-0.45487 -1.50873,-0.53045 -0.366633,-0.0432 -0.966573,-0.0432 -1.333203,0 -0.65671,0.0774 -1.50872,0.38169 -1.50872,0.53878 0,0.13921 0.89943,0.45488 1.52272,0.53442 0.59211,0.0756 0.70576,0.0723 1.602813,-0.0456 z m -4.232113,-4.92293 c -0.59908,-0.0632 -0.65151,-0.18929 -0.48261,-1.16056 0.0805,-0.46307 0.19739,-0.89292 0.2597,-0.95523 0.0757,-0.0757 0.41456,-0.0823 1.0205,-0.0198 l 0.9072,0.0934 -0.0186,0.90523 c -0.0102,0.49788 -0.0454,0.97509 -0.0782,1.06047 -0.0593,0.15449 -0.61746,0.18105 -1.60804,0.0765 z m 3.11384,-0.058 c -0.0289,-0.0752 -0.064,-0.55134 -0.0782,-1.05809 l -0.0257,-0.92137 0.915913,-0.14149 c 0.50376,-0.0778 0.95547,-0.10194 1.00381,-0.0536 0.15151,0.15151 0.44109,1.89739 0.33269,2.00579 -0.10355,0.10355 -1.26205,0.29946 -1.793573,0.30331 -0.16638,10e-4 -0.32613,-0.0593 -0.35499,-0.13455 z m 3.556593,-0.59744 c -0.17173,-0.32804 -0.38703,-1.76742 -0.27957,-1.8691 0.0548,-0.0519 0.48856,-0.17347 0.96389,-0.27024 0.70234,-0.14298 0.89034,-0.14985 1.00351,-0.0367 0.20742,0.20742 0.4343,1.79369 0.27879,1.9492 -0.10572,0.10572 -1.34744,0.40144 -1.73484,0.41316 -0.0727,0.002 -0.17697,-0.0816 -0.23178,-0.18634 z M 92.985256,130.02 c -0.774511,-0.27891 -1.02041,-0.42396 -1.02041,-0.60194 0,-0.29138 0.749467,-1.79682 0.891134,-1.79 0.07818,0.004 0.484757,0.1404 0.903507,0.30364 0.89859,0.3503 0.92279,0.41286 0.57411,1.48416 -0.2872,0.88238 -0.41573,0.93997 -1.348341,0.60414 z m 13.188894,-0.41622 c -0.11769,-0.19043 -0.39268,-1.91983 -0.31597,-1.98713 0.15104,-0.13252 1.91904,-0.43274 2.0104,-0.34138 0.16666,0.16666 0.43864,1.88475 0.31753,2.00586 -0.0618,0.0617 -0.44525,0.1767 -0.85223,0.25546 -0.86975,0.1683 -1.08937,0.18103 -1.15973,0.0672 z M 89.596365,128.3215 c -0.486846,-0.31148 -0.785739,-0.57549 -0.785739,-0.69404 0,-0.24274 1.050304,-1.6396 1.227266,-1.63222 0.251267,0.0105 1.437594,0.93623 1.467093,1.14483 0.03775,0.26698 -0.742247,1.61083 -0.959207,1.65262 -0.09002,0.0173 -0.517257,-0.1947 -0.949413,-0.47119 z m -2.825106,-2.07731 c -0.373884,-0.26847 -0.679789,-0.56731 -0.679789,-0.66408 0,-0.29121 0.866037,-1.65694 1.0507,-1.65694 0.09397,0 0.507817,0.22401 0.919657,0.4978 0.549254,0.36514 0.747818,0.56079 0.745116,0.73417 -0.0043,0.27503 -1.02568,1.60043 -1.222654,1.58657 -0.07328,-0.005 -0.439146,-0.22904 -0.81303,-0.49752 z m -2.746347,-1.4023 c -0.329018,-0.13937 -0.683868,-0.27616 -0.788556,-0.30397 -0.245373,-0.0652 -0.239707,-0.17647 0.05898,-1.15859 0.230989,-0.75952 0.270305,-0.81785 0.570408,-0.84624 0.397306,-0.0376 1.565585,0.40497 1.721491,0.65213 0.18296,0.29005 -0.534026,1.94923 -0.830656,1.92222 -0.0734,-0.007 -0.402648,-0.12618 -0.731665,-0.26555 z m -10.772209,-0.11442 c -0.237998,-0.62599 -0.456156,-1.69226 -0.364074,-1.77946 0.05308,-0.0503 0.478926,-0.19746 0.946323,-0.3271 0.61457,-0.17045 0.888597,-0.20351 0.989917,-0.11942 0.179006,0.14856 0.528247,1.42819 0.48059,1.76089 -0.03043,0.21246 -0.16674,0.29128 -0.851976,0.49264 -1.050176,0.3086 -1.073175,0.30807 -1.20078,-0.0275 z m 3.341189,-0.66404 c -0.129687,-0.20984 -0.323678,-1.89168 -0.229016,-1.98549 0.05543,-0.0549 0.516814,-0.15204 1.025296,-0.21578 1.149046,-0.14404 1.196428,-0.10051 1.196428,1.09907 0,0.69522 -0.03383,0.86303 -0.190341,0.94402 -0.264977,0.13712 -1.735612,0.26619 -1.802367,0.15818 z m 4.047569,-0.0298 c -0.335453,-0.0432 -0.6612,-0.1102 -0.723884,-0.14894 -0.151571,-0.0937 -0.04215,-1.81983 0.12683,-2.00081 0.09876,-0.10577 0.330681,-0.11038 1.047586,-0.0208 0.506409,0.0632 0.964595,0.15844 1.018189,0.21154 0.116359,0.11528 -0.122195,1.73056 -0.285054,1.93014 -0.119477,0.14642 -0.246768,0.14953 -1.183667,0.0289 z m 15.355386,-0.43712 c 0.21358,-0.0593 0.62945,-0.27931 0.92416,-0.48884 0.6776,-0.48175 1.01479,-0.48407 1.91822,-0.0132 1.415583,0.73785 2.982473,0.76482 4.382803,0.0754 3.17729,-1.56417 2.29001,-5.29158 -1.40538,-5.90393 -1.951683,-0.3234 -4.066423,0.73405 -4.645813,2.32309 -0.32472,0.89055 -0.52565,1.0355 -1.51834,1.09525 -1.04974,0.0632 -1.69234,0.38574 -1.99219,0.99997 -0.18869,0.38654 -0.19373,0.46617 -0.0544,0.86028 0.17094,0.48344 0.49832,0.77056 1.13875,0.9987 0.51823,0.18461 0.74452,0.19423 1.25217,0.0532 z M 79.837686,113.08578 c 0.140592,-0.054 0.162875,-0.61268 0.162875,-4.08398 v -4.02147 l -2.534907,0.0359 -2.534906,0.0359 -0.823678,0.40731 c -0.975508,0.48239 -1.501477,1.02185 -1.97584,2.02652 -0.297833,0.63079 -0.340143,0.83539 -0.340143,1.64491 0,0.80951 0.04231,1.01412 0.340143,1.64491 0.187079,0.39622 0.516024,0.91508 0.730989,1.15302 0.424275,0.46962 1.420747,1.05143 2.093519,1.22235 0.428521,0.10886 4.572469,0.0533 4.881948,-0.0655 z"
       id="path1132" />
  </g>
</svg>
