<?xml version="1.0" encoding="UTF-8" standalone="no"?>
<!-- Created with Inkscape (http://www.inkscape.org/) -->

<svg
   width="206.0274mm"
   height="205.12367mm"
   viewBox="0 0 206.0274 205.12367"
   version="1.1"
   id="svg5"
   xmlns="http://www.w3.org/2000/svg"
   xmlns:svg="http://www.w3.org/2000/svg">
  <defs
     id="defs2" />
  <g
     id="layer1"
     transform="translate(-2.8839619,-43.372776)">
    <path
       style="fill:#ffffff;stroke-width:0.113078"
       d="m 87.245801,248.07241 c -0.06477,-0.23322 -0.118046,-0.53465 -0.118392,-0.66983 -3.39e-4,-0.1352 -0.04997,-0.49139 -0.110277,-0.79155 -0.0603,-0.30016 -0.189436,-1.02915 -0.286959,-1.61998 -0.09752,-0.59083 -0.224354,-1.32866 -0.281845,-1.63963 -0.05749,-0.31096 -0.128726,-0.74348 -0.1583,-0.96116 -0.06977,-0.51353 -0.490314,-3.05906 -0.625831,-3.7881 -0.0578,-0.31096 -0.157671,-0.89614 -0.221929,-1.30039 -0.06426,-0.40425 -0.196828,-1.19297 -0.294598,-1.7527 -0.318652,-1.82427 -0.39009,-2.24226 -0.628074,-3.67502 -0.274255,-1.65112 -0.415853,-2.52448 -0.553179,-3.41197 -0.235865,-1.52431 -0.348868,-1.88916 -0.606358,-1.95775 -0.136146,-0.0362 -0.425633,-0.11228 -0.643308,-0.16894 -1.473929,-0.38362 -6.439496,-2.08653 -7.745816,-2.65636 -0.186578,-0.0814 -0.553329,-0.2286 -0.815003,-0.32713 -0.261674,-0.0985 -0.719638,-0.28811 -1.017699,-0.4213 -0.29806,-0.13319 -0.694582,-0.30748 -0.88116,-0.38733 -1.196392,-0.51199 -5.820003,-2.7764 -6.106191,-2.9905 -0.06219,-0.0465 -0.225648,-0.11213 -0.363236,-0.14577 -0.257294,-0.0629 -0.907055,0.38414 -9.080802,6.24778 -1.690549,1.21276 -3.217951,2.30678 -3.394225,2.43117 -0.176276,0.12438 -1.768586,1.25607 -3.538468,2.51487 -1.769883,1.25879 -3.287034,2.31518 -3.371447,2.34753 -0.21976,0.0842 -26.664009,-26.40514 -26.584476,-26.62984 0.03302,-0.0933 0.955896,-1.4337 2.050833,-2.97869 1.094938,-1.54498 2.112983,-2.9952 2.26232,-3.22271 0.149338,-0.2275 0.307107,-0.43908 0.350598,-0.47018 0.04349,-0.0311 0.213711,-0.26008 0.378265,-0.50885 0.164554,-0.24877 0.413864,-0.60923 0.554023,-0.80101 0.140157,-0.19179 0.43293,-0.60601 0.650604,-0.92052 0.217675,-0.31449 1.916383,-2.72227 3.774908,-5.35061 1.858526,-2.62836 3.398968,-4.86013 3.423207,-4.95953 0.02424,-0.0994 -0.133732,-0.51146 -0.351042,-0.91571 -0.757166,-1.40852 -3.228589,-6.47175 -3.228589,-6.61444 0,-0.0277 -0.127213,-0.32855 -0.282694,-0.66847 -0.155482,-0.33991 -0.282694,-0.64729 -0.282694,-0.68305 0,-0.0358 -0.09593,-0.28072 -0.213169,-0.54437 -0.756842,-1.70189 -1.948225,-5.10806 -2.560527,-7.32054 -0.111876,-0.40425 -0.258673,-0.79026 -0.326214,-0.8578 -0.109388,-0.10938 -0.763795,-0.24225 -3.06282,-0.62184 -0.373156,-0.0616 -1.263642,-0.21549 -1.978858,-0.34195 -0.715216,-0.12645 -1.605702,-0.27493 -1.978858,-0.32998 -0.808828,-0.11929 -1.675396,-0.26355 -3.053095,-0.50827 -0.559735,-0.0994 -1.323008,-0.22508 -1.696165,-0.27925 -0.373156,-0.0541 -1.441739,-0.23182 -2.374629,-0.3948 -0.932891,-0.16298 -1.9760307,-0.33947 -2.3180907,-0.39218 -0.613176,-0.0945 -1.4685757,-0.23744 -2.7421326,-0.45818 -0.8633026,-0.14963 -1.7769474,-0.30208 -2.7421319,-0.45753 -0.4353488,-0.0701 -0.8805919,-0.15185 -0.9894291,-0.18163 -0.1874549,-0.0513 -0.1978858,-1.04806 -0.1978858,-18.90976 v -18.85559 l 0.7067351,-0.12914 c 0.3887042,-0.071 1.2664691,-0.20889 1.9505887,-0.30636 1.8673748,-0.26607 2.6117229,-0.37702 3.7315606,-0.55625 0.559735,-0.0896 1.4502207,-0.22129 1.9788587,-0.29268 0.528638,-0.0714 1.241027,-0.17547 1.583086,-0.23127 0.64705,-0.10555 2.443347,-0.3772 3.759345,-0.56852 0.419533,-0.061 1.081037,-0.15841 1.470008,-0.21648 1.603261,-0.23937 3.131664,-0.46212 3.929933,-0.57276 0.466446,-0.0647 1.102507,-0.16414 1.41347,-0.22109 0.310964,-0.057 0.819813,-0.13406 1.130776,-0.17135 0.310964,-0.0373 0.795676,-0.1181 1.077137,-0.17959 l 0.511749,-0.11179 0.20986,-0.75808 c 0.590883,-2.13444 1.627014,-5.20475 2.545437,-7.54274 0.371646,-0.94608 0.400726,-1.01572 0.79679,-1.90816 0.13455,-0.30318 0.33834,-0.78658 0.452867,-1.07424 0.312861,-0.7858 0.925713,-2.09302 2.119363,-4.52062 0.891518,-1.81313 1.056769,-2.22999 0.963736,-2.43116 -0.06176,-0.13354 -0.438683,-0.67533 -0.837613,-1.20397 -0.398931,-0.52863 -1.219116,-1.6481 -1.822632,-2.4877 -2.565482,-3.569054 -3.140661,-4.362784 -3.279986,-4.526264 -0.08098,-0.095 -0.767608,-1.0364 -1.525836,-2.09194 -0.75823,-1.05554 -1.990071,-2.75876 -2.737426,-3.78494 -2.548323,-3.49906 -3.279244,-4.53036 -3.279244,-4.6269 0,-0.0877 7.329424,-7.43158 7.564058,-7.57901 0.05515,-0.0347 3.349804,-3.27098 7.321445,-7.19182 10.076227,-9.94735 11.915399,-11.74989 12.031205,-11.79157 0.07478,-0.0269 8.931874,6.15744 13.331816,9.30878 0.173668,0.12439 0.611112,0.4297 0.972097,0.67847 0.360984,0.24877 0.813107,0.56698 1.004717,0.70714 0.405305,0.29647 0.818578,0.58582 1.988006,1.39186 0.466445,0.32151 0.953131,0.68042 1.081525,0.79759 0.337494,0.30799 0.729068,0.26391 1.493426,-0.16813 0.688653,-0.38925 5.750244,-2.89808 5.846905,-2.89808 0.02931,0 0.372605,-0.14605 0.762868,-0.32456 2.227718,-1.01899 5.87315,-2.36978 8.398843,-3.11215 0.559735,-0.16452 1.142701,-0.33677 1.295482,-0.38279 0.301279,-0.0907 0.413911,-0.44812 0.685052,-2.17361 0.0733,-0.46645 0.199114,-1.22972 0.279595,-1.69617 0.08048,-0.46644 0.204688,-1.20427 0.276018,-1.63962 0.155263,-0.94763 0.2766,-1.6757 0.80091,-4.8058 0.0573,-0.34206 0.182563,-1.10533 0.278368,-1.69616 0.0958,-0.59083 0.224735,-1.36683 0.28651,-1.72444 0.06178,-0.35761 0.160918,-0.94278 0.220314,-1.30039 0.0594,-0.35761 0.188896,-1.1336 0.287778,-1.72443 0.304161,-1.8174 0.382571,-2.2894 0.516585,-3.10964 0.07113,-0.43535 0.200257,-1.1659 0.28695,-1.62345 0.08669,-0.45755 0.157625,-0.97548 0.157625,-1.15097 0,-0.72867 -1.531384,-0.67444 19.047807,-0.67444 14.81651,0 18.71654,0.0293 18.80877,0.14134 0.064,0.0777 0.14945,0.39577 0.18994,0.70674 0.0405,0.31096 0.11722,0.79437 0.17055,1.07423 0.0533,0.27987 0.15711,0.89049 0.23062,1.35694 0.0735,0.46644 0.20103,1.22971 0.2834,1.69616 0.0824,0.46644 0.18149,1.05162 0.22027,1.30039 0.13379,0.858 0.27176,1.70048 0.50004,3.0531 0.12595,0.74631 0.28644,1.71312 0.35664,2.14847 0.0702,0.43535 0.17288,1.02053 0.22819,1.30039 0.0553,0.27987 0.17901,1.0177 0.27489,1.63963 0.0959,0.62193 0.22211,1.41064 0.28049,1.7527 0.10447,0.61203 0.35697,2.11694 0.57866,3.44887 0.0621,0.37316 0.15864,0.93289 0.21452,1.24385 0.0559,0.31097 0.13371,0.79437 0.17294,1.07424 0.0393,0.27987 0.0952,0.59386 0.1244,0.69776 0.037,0.13177 0.6074,0.36556 1.8858,0.77296 2.03806,0.64947 4.03523,1.36566 5.67737,2.03591 0.12439,0.0508 0.6078,0.24615 1.07424,0.43418 0.46645,0.18803 1.17883,0.49016 1.58309,0.6714 0.40425,0.18124 1.01487,0.45033 1.35693,0.598 0.34206,0.14766 1.82319,0.86763 3.29141,1.59992 1.46822,0.7323 2.73049,1.33146 2.80507,1.33146 0.0746,0 1.49388,-0.94459 3.15401,-2.09908 1.66014,-1.1545 4.34144,-3.01955 5.95845,-4.14456 1.61701,-1.12501 3.21324,-2.22855 3.54718,-2.45229 0.33395,-0.22375 0.72093,-0.48315 0.85998,-0.57644 0.13904,-0.0933 0.37466,-0.25806 0.52361,-0.36617 1.93676,-1.40576 5.02306,-3.47846 5.17951,-3.47846 0.11371,0 1.34809,1.16988 2.83364,2.68559 1.44769,1.47707 4.11462,4.1867 5.9265,6.02138 1.81189,1.83468 4.7925,4.86234 6.62359,6.72812 1.83109,1.86578 5.10011,5.18331 7.26447,7.37229 2.16436,2.18898 3.9352,4.03233 3.9352,4.09634 0,0.064 -0.31803,0.55427 -0.70674,1.08946 -0.3887,0.53519 -0.8085,1.11746 -0.93289,1.29394 -0.81153,1.15139 -2.48453,3.45839 -2.54204,3.50538 -0.0553,0.0452 -2.00572,2.74004 -3.11184,4.29956 -0.39112,0.55145 -2.6664,3.694894 -4.3627,6.027344 -0.89673,1.23303 -1.69962,2.33887 -1.78422,2.45744 -0.16879,0.23657 -0.20345,0.14942 0.7619,1.91575 0.65553,1.19945 2.34605,4.63328 2.60719,5.29579 0.12054,0.30582 0.32925,0.80408 0.4638,1.10726 0.27984,0.63054 0.3155,0.71787 0.73316,1.79508 0.16879,0.43534 0.34775,0.89331 0.3977,1.01769 0.20874,0.51988 0.67907,1.87367 0.96251,2.77041 0.16709,0.52863 0.34374,1.06293 0.39255,1.18731 0.0488,0.12439 0.2471,0.78406 0.44061,1.46594 0.19351,0.68188 0.39039,1.27834 0.43752,1.32547 0.0471,0.0471 0.44077,0.13982 0.87476,0.20598 0.88686,0.13521 1.41735,0.22112 3.44641,0.55816 1.43276,0.23798 1.85075,0.30942 3.67502,0.62807 0.55974,0.0978 1.34845,0.23022 1.75271,0.29434 0.40425,0.0641 0.98942,0.16059 1.30039,0.21438 0.31096,0.0538 1.07423,0.18107 1.69616,0.28284 0.62193,0.10176 1.3852,0.22903 1.69617,0.28281 0.31096,0.0538 0.89614,0.15036 1.30039,0.21462 0.40425,0.0643 1.19297,0.19683 1.7527,0.2946 1.55395,0.27143 2.162,0.37345 3.39233,0.56913 0.62193,0.0989 1.37248,0.23261 1.66789,0.29709 l 0.53712,0.11724 v 18.90885 18.90884 l -0.93289,0.13788 c -0.51309,0.0758 -1.21276,0.18363 -1.55481,0.23957 -0.34206,0.0559 -0.97813,0.15353 -1.41347,0.21689 -1.29594,0.18858 -3.11581,0.45858 -3.90118,0.57878 -0.40425,0.0619 -1.2693,0.1908 -1.92232,0.28652 -0.65302,0.0957 -1.50556,0.22154 -1.89454,0.27962 -0.38897,0.0581 -1.05048,0.15635 -1.47001,0.2184 -0.41953,0.062 -1.27163,0.19104 -1.89356,0.28666 -0.62193,0.0956 -1.47425,0.22411 -1.89405,0.28553 -1.50513,0.22024 -2.30599,0.34229 -3.33583,0.50838 -0.57532,0.0928 -1.18594,0.16898 -1.35694,0.16933 -0.171,0 -0.49238,0.051 -0.71417,0.11265 -0.42779,0.11883 -0.41959,0.10219 -0.9179,1.86557 -0.29879,1.05735 -1.27606,3.9565 -1.56279,4.63619 -0.0525,0.12438 -0.30539,0.76044 -0.56204,1.41347 -0.25665,0.65302 -0.512,1.28908 -0.56744,1.41347 -0.0554,0.12438 -0.27231,0.60779 -0.48192,1.07423 -0.20961,0.46645 -0.50515,1.12762 -0.65675,1.46928 -0.15159,0.34165 -0.77934,1.61377 -1.395,2.82694 -0.61566,1.21316 -1.21575,2.39866 -1.33354,2.63443 l -0.21418,0.42869 1.61624,2.26784 c 0.88894,1.2473 1.79434,2.52 2.01201,2.82822 0.21767,0.3082 2.02409,2.85201 4.01426,5.65287 1.99016,2.80088 3.72025,5.23585 3.84463,5.41104 0.12439,0.17519 0.65211,0.91156 1.17273,1.63637 0.52061,0.72481 0.95313,1.38692 0.96116,1.47136 0.0161,0.16897 -26.32643,26.63251 -26.51069,26.63251 -0.0629,0 -0.70244,-0.4198 -1.42112,-0.93289 -0.71867,-0.51309 -1.44979,-1.03466 -1.6247,-1.15904 -0.17489,-0.12439 -2.17873,-1.54917 -4.45296,-3.16618 -2.27421,-1.61701 -4.58124,-3.25834 -5.12672,-3.6474 -0.54548,-0.38906 -1.1534,-0.82158 -1.35095,-0.96116 -0.19756,-0.13958 -1.45264,-1.02977 -2.78907,-1.97821 -1.33644,-0.94843 -2.49375,-1.72443 -2.57178,-1.72443 -0.078,0 -1.24,0.54877 -2.58212,1.21947 -2.29364,1.14623 -3.91088,1.91396 -4.54039,2.15541 -0.15096,0.0579 -0.61921,0.26361 -1.04056,0.45714 -0.42137,0.19352 -0.79531,0.35185 -0.831,0.35185 -0.0357,0 -0.25067,0.0815 -0.47775,0.18115 -0.47733,0.20942 -0.60644,0.26171 -1.60018,0.64788 -1.27614,0.49592 -2.25693,0.83936 -4.43934,1.55452 -1.79527,0.5883 -2.12836,0.73227 -2.16741,0.93676 -0.0254,0.1329 -0.10209,0.59783 -0.17048,1.03318 -0.13461,0.85685 -0.39575,2.43821 -0.5742,3.47714 -0.0614,0.3576 -0.16029,0.94278 -0.21968,1.30039 -0.19253,1.15921 -0.46499,2.78361 -0.57373,3.4206 -0.0584,0.34206 -0.18461,1.13077 -0.28049,1.7527 -0.0959,0.62193 -0.21958,1.35976 -0.27489,1.63962 -0.0553,0.27987 -0.15799,0.86505 -0.22819,1.3004 -0.0702,0.43534 -0.23069,1.40216 -0.35664,2.14847 -0.25728,1.52451 -0.35835,2.14373 -0.78439,4.8058 -0.0747,0.46644 -0.15323,0.91169 -0.17463,0.98943 -0.0309,0.11236 -3.93407,0.14134 -19.03416,0.14134 H 87.363564 Z M 109.40307,186.0723 c 0.77741,-0.0682 2.04953,-0.22875 2.82694,-0.3568 2.15195,-0.35444 2.52088,-0.43451 4.35349,-0.9448 1.71329,-0.47706 3.02672,-0.92954 4.74926,-1.63613 0.74426,-0.3053 3.65421,-1.75796 4.46656,-2.22973 3.56515,-2.07044 6.88566,-4.81128 9.89835,-8.17038 1.00932,-1.12538 4.0102,-5.22318 4.0102,-5.47606 0,-0.0253 0.2353,-0.44406 0.5229,-0.93051 0.2876,-0.48646 0.85079,-1.57196 1.25153,-2.41225 0.78935,-1.6551 0.76971,-1.61048 1.21991,-2.77163 0.1688,-0.43535 0.3466,-0.89331 0.39511,-1.0177 0.31237,-0.80076 1.08376,-3.38982 1.23446,-4.14323 0.0542,-0.27113 0.17715,-0.87459 0.27315,-1.34103 0.5864,-2.84903 0.75682,-4.6442 0.75682,-7.97197 0,-1.60292 -0.0545,-3.37812 -0.12113,-3.9449 -0.30887,-2.62784 -0.74537,-4.82881 -1.46021,-7.36286 -0.25672,-0.91005 -0.89296,-2.71052 -1.24872,-3.53368 -0.0605,-0.13993 -0.15738,-0.36892 -0.21536,-0.50885 -0.35134,-0.84811 -1.64308,-3.44603 -2.08556,-4.19445 -0.2876,-0.48645 -0.5229,-0.90518 -0.5229,-0.93051 0,-0.0752 -1.61428,-2.4664 -1.77477,-2.62893 -0.0812,-0.0822 -0.14755,-0.18708 -0.14755,-0.2331 0,-0.046 -0.0891,-0.18287 -0.19789,-0.30409 -0.10883,-0.12123 -0.60416,-0.72872 -1.10073,-1.34999 -4.05786,-5.07687 -10.05273,-9.46696 -16.28495,-11.92558 -5.61766,-2.21618 -12.08412,-3.13627 -17.85608,-2.54069 -1.52556,0.15741 -2.10985,0.2433 -4.194056,0.61653 -0.310963,0.0557 -1.074237,0.23442 -1.696164,0.39719 -0.621927,0.16277 -1.308873,0.34091 -1.526547,0.39586 -0.792192,0.20002 -2.922511,0.97514 -4.466566,1.62519 -1.467833,0.61795 -4.8436,2.41521 -5.561527,2.96095 -0.197977,0.1505 -0.393596,0.27363 -0.434711,0.27363 -0.09874,0 -1.825624,1.24009 -2.823815,2.0278 -1.986137,1.56734 -4.160512,3.63168 -5.486814,5.20917 -0.339883,0.40425 -0.644946,0.76044 -0.677916,0.79154 -0.482439,0.45501 -2.664541,3.55197 -3.505654,4.97541 -0.979674,1.65794 -2.245823,4.1998 -2.703646,5.42773 -0.08116,0.21767 -0.212698,0.54843 -0.292309,0.735 -0.07961,0.18658 -0.296562,0.7972 -0.482113,1.35693 -1.0221,3.08328 -1.550664,5.54456 -1.903653,8.86444 -0.205772,1.93529 -0.16911,6.79699 0.06319,8.3799 0.320967,2.18705 0.52378,3.2956 0.910279,4.97541 0.281222,1.22226 1.081797,3.82252 1.409994,4.57965 0.08088,0.18657 0.213093,0.51733 0.293814,0.735 0.125724,0.33903 0.500092,1.17012 1.324356,2.94002 0.101372,0.21767 0.428427,0.82287 0.726785,1.34489 0.29836,0.52201 0.542472,0.97168 0.542472,0.99929 0,0.0276 0.391856,0.64362 0.870789,1.36897 2.636252,3.99258 5.504314,7.12605 8.918948,9.74428 0.492853,0.37791 0.974438,0.7485 1.070189,0.82353 1.608979,1.2609 4.737407,3.02892 7.797879,4.40697 1.359398,0.61208 4.860714,1.7572 6.16273,2.01552 0.24877,0.0494 0.706735,0.1463 1.017698,0.21543 3.511088,0.78052 7.722138,1.0229 11.703538,0.67362 z"
       id="path21" />
  </g>
</svg>
