<?xml version="1.0" encoding="UTF-8" standalone="no"?>
<!-- Created with Inkscape (http://www.inkscape.org/) -->

<svg
   width="119.94509mm"
   height="144.48634mm"
   viewBox="0 0 119.94509 144.48634"
   version="1.1"
   id="svg5"
   inkscape:version="1.1.1 (3bf5ae0d25, 2021-09-20)"
   sodipodi:docname="mod-type-character.svg"
   xmlns:inkscape="http://www.inkscape.org/namespaces/inkscape"
   xmlns:sodipodi="http://sodipodi.sourceforge.net/DTD/sodipodi-0.dtd"
   xmlns="http://www.w3.org/2000/svg"
   xmlns:svg="http://www.w3.org/2000/svg">
  <sodipodi:namedview
     id="namedview7"
     pagecolor="#505050"
     bordercolor="#ffffff"
     borderopacity="1"
     inkscape:pageshadow="0"
     inkscape:pageopacity="0"
     inkscape:pagecheckerboard="1"
     inkscape:document-units="mm"
     showgrid="false"
     inkscape:zoom="0.77771465"
     inkscape:cx="180.01461"
     inkscape:cy="399.24669"
     inkscape:window-width="2560"
     inkscape:window-height="1377"
     inkscape:window-x="1912"
     inkscape:window-y="-8"
     inkscape:window-maximized="1"
     inkscape:current-layer="layer1" />
  <defs
     id="defs2" />
  <g
     inkscape:label="Layer 1"
     inkscape:groupmode="layer"
     id="layer1"
     transform="translate(-46.511989,-88.335395)">
    <path
       style="fill:#ffffff;stroke-width:0.282222"
       d="m 72.644305,232.4575 c -0.528738,-0.18527 -1.227238,-0.69513 -1.552222,-1.13303 -0.562362,-0.75776 -0.595037,-1.18844 -0.677108,-8.92434 l -0.08623,-8.12816 -1.295084,-0.17751 c -3.195362,-0.43798 -8.004111,-2.38349 -11.019902,-4.45841 -3.915662,-2.69404 -7.733458,-7.45258 -9.545851,-11.89803 -2.028604,-4.97578 -1.95559,-3.69372 -1.95559,-34.33848 v -27.51667 l 0.642439,-2.52305 c 2.710249,-10.64395 11.453435,-18.73463 22.115099,-20.46462 0.987687,-0.16027 3.034044,-0.29235 4.547461,-0.29353 l 2.751666,-0.002 v -8.31496 c 0,-7.81307 0.03656,-8.4127 0.605779,-9.93406 1.13422,-3.03147 3.854582,-5.20089 7.211025,-5.75061 2.154533,-0.35286 42.042963,-0.35286 44.197493,0 3.35645,0.54972 6.07681,2.71914 7.21103,5.75061 0.56921,1.52136 0.60578,2.12099 0.60578,9.93406 v 8.31496 l 2.75167,0.002 c 5.15459,0.004 9.85363,1.25427 14.01976,3.73024 6.19681,3.68283 10.83562,9.9306 12.64279,17.02791 l 0.64244,2.52304 v 27.51667 c 0,30.64476 0.073,29.3627 -1.95559,34.33848 -1.81239,4.44545 -5.63019,9.20399 -9.54585,11.89803 -3.01579,2.07492 -7.82454,4.02043 -11.0199,4.45841 l -1.29508,0.17751 -0.0862,8.12816 c -0.0821,7.7359 -0.11475,8.16658 -0.67711,8.92434 -0.32499,0.4379 -1.02349,0.94776 -1.55222,1.13303 -1.38608,0.48567 -66.294384,0.48567 -67.680465,0 z m 3.851413,-15.78851 c -0.05511,-0.97014 -0.1002,-0.17639 -0.1002,1.76388 0,1.94028 0.04509,2.73403 0.1002,1.76389 0.05511,-0.97014 0.05511,-2.55764 0,-3.52777 z"
       id="path21" />
  </g>
</svg>
